{
  "ffprobe": {
    "audio_streams": [
      {
        "avg_frame_rate": "0/0",
        "bit_rate": "768000",
        "bits_per_sample": 16,
        "channels": 1,
        "codec_long_name": "PCM signed 16-bit little-endian",
        "codec_name": "pcm_s16le",
        "codec_tag": "0x0000",
        "codec_tag_string": "[0][0][0][0]",
        "codec_time_base": "1/48000",
        "codec_type": "audio",
        "disposition": {
          "attached_pic": 0,
          "clean_effects": 0,
          "comment": 0,
          "default": 0,
          "dub": 0,
          "forced": 0,
          "hearing_impaired": 0,
          "karaoke": 0,
          "lyrics": 0,
          "original": 0,
          "timed_thumbnails": 0,
          "visual_impaired": 0
        },
        "duration": "64.798063",
        "duration_ts": 3110307,
        "index": 1,
        "r_frame_rate": "0/0",
        "sample_fmt": "s16",
        "sample_rate": "48000",
        "start_pts": 0,
        "start_time": "0.000000",
        "tags": {
          "file_package_umid": "0x060A2B340101010501010D2013000000CFEC51C37E794D9FAC76236E23C9D437",
          "track_name": "Audio Track"
        },
        "time_base": "1/48000"
      },
      {
        "avg_frame_rate": "0/0",
        "bit_rate": "768000",
        "bits_per_sample": 16,
        "channels": 1,
        "codec_long_name": "PCM signed 16-bit little-endian",
        "codec_name": "pcm_s16le",
        "codec_tag": "0x0000",
        "codec_tag_string": "[0][0][0][0]",
        "codec_time_base": "1/48000",
        "codec_type": "audio",
        "disposition": {
          "attached_pic": 0,
          "clean_effects": 0,
          "comment": 0,
          "default": 0,
          "dub": 0,
          "forced": 0,
          "hearing_impaired": 0,
          "karaoke": 0,
          "lyrics": 0,
          "original": 0,
          "timed_thumbnails": 0,
          "visual_impaired": 0
        },
        "duration": "64.798063",
        "duration_ts": 3110307,
        "index": 2,
        "r_frame_rate": "0/0",
        "sample_fmt": "s16",
        "sample_rate": "48000",
        "start_pts": 0,
        "start_time": "0.000000",
        "tags": {
          "file_package_umid": "0x060A2B340101010501010D2013000000CFEC51C37E794D9FAC76236E23C9D437",
          "track_name": "Audio Track"
        },
        "time_base": "1/48000"
      },
      {
        "avg_frame_rate": "0/0",
        "bit_rate": "768000",
        "bits_per_sample": 16,
        "channels": 1,
        "codec_long_name": "PCM signed 16-bit little-endian",
        "codec_name": "pcm_s16le",
        "codec_tag": "0x0000",
        "codec_tag_string": "[0][0][0][0]",
        "codec_time_base": "1/48000",
        "codec_type": "audio",
        "disposition": {
          "attached_pic": 0,
          "clean_effects": 0,
          "comment": 0,
          "default": 0,
          "dub": 0,
          "forced": 0,
          "hearing_impaired": 0,
          "karaoke": 0,
          "lyrics": 0,
          "original": 0,
          "timed_thumbnails": 0,
          "visual_impaired": 0
        },
        "duration": "64.798063",
        "duration_ts": 3110307,
        "index": 3,
        "r_frame_rate": "0/0",
        "sample_fmt": "s16",
        "sample_rate": "48000",
        "start_pts": 0,
        "start_time": "0.000000",
        "tags": {
          "file_package_umid": "0x060A2B340101010501010D2013000000CFEC51C37E794D9FAC76236E23C9D437",
          "track_name": "Audio Track"
        },
        "time_base": "1/48000"
      },
      {
        "avg_frame_rate": "0/0",
        "bit_rate": "768000",
        "bits_per_sample": 16,
        "channels": 1,
        "codec_long_name": "PCM signed 16-bit little-endian",
        "codec_name": "pcm_s16le",
        "codec_tag": "0x0000",
        "codec_tag_string": "[0][0][0][0]",
        "codec_time_base": "1/48000",
        "codec_type": "audio",
        "disposition": {
          "attached_pic": 0,
          "clean_effects": 0,
          "comment": 0,
          "default": 0,
          "dub": 0,
          "forced": 0,
          "hearing_impaired": 0,
          "karaoke": 0,
          "lyrics": 0,
          "original": 0,
          "timed_thumbnails": 0,
          "visual_impaired": 0
        },
        "duration": "64.798063",
        "duration_ts": 3110307,
        "index": 4,
        "r_frame_rate": "0/0",
        "sample_fmt": "s16",
        "sample_rate": "48000",
        "start_pts": 0,
        "start_time": "0.000000",
        "tags": {
          "file_package_umid": "0x060A2B340101010501010D2013000000CFEC51C37E794D9FAC76236E23C9D437",
          "track_name": "Audio Track"
        },
        "time_base": "1/48000"
      },
      {
        "avg_frame_rate": "0/0",
        "bit_rate": "768000",
        "bits_per_sample": 16,
        "channels": 1,
        "codec_long_name": "PCM signed 16-bit little-endian",
        "codec_name": "pcm_s16le",
        "codec_tag": "0x0000",
        "codec_tag_string": "[0][0][0][0]",
        "codec_time_base": "1/48000",
        "codec_type": "audio",
        "disposition": {
          "attached_pic": 0,
          "clean_effects": 0,
          "comment": 0,
          "default": 0,
          "dub": 0,
          "forced": 0,
          "hearing_impaired": 0,
          "karaoke": 0,
          "lyrics": 0,
          "original": 0,
          "timed_thumbnails": 0,
          "visual_impaired": 0
        },
        "duration": "64.798063",
        "duration_ts": 3110307,
        "index": 5,
        "r_frame_rate": "0/0",
        "sample_fmt": "s16",
        "sample_rate": "48000",
        "start_pts": 0,
        "start_time": "0.000000",
        "tags": {
          "file_package_umid": "0x060A2B340101010501010D2013000000CFEC51C37E794D9FAC76236E23C9D437",
          "track_name": "Audio Track"
        },
        "time_base": "1/48000"
      },
      {
        "avg_frame_rate": "0/0",
        "bit_rate": "768000",
        "bits_per_sample": 16,
        "channels": 1,
        "codec_long_name": "PCM signed 16-bit little-endian",
        "codec_name": "pcm_s16le",
        "codec_tag": "0x0000",
        "codec_tag_string": "[0][0][0][0]",
        "codec_time_base": "1/48000",
        "codec_type": "audio",
        "disposition": {
          "attached_pic": 0,
          "clean_effects": 0,
          "comment": 0,
          "default": 0,
          "dub": 0,
          "forced": 0,
          "hearing_impaired": 0,
          "karaoke": 0,
          "lyrics": 0,
          "original": 0,
          "timed_thumbnails": 0,
          "visual_impaired": 0
        },
        "duration": "64.798063",
        "duration_ts": 3110307,
        "index": 6,
        "r_frame_rate": "0/0",
        "sample_fmt": "s16",
        "sample_rate": "48000",
        "start_pts": 0,
        "start_time": "0.000000",
        "tags": {
          "file_package_umid": "0x060A2B340101010501010D2013000000CFEC51C37E794D9FAC76236E23C9D437",
          "track_name": "Audio Track"
        },
        "time_base": "1/48000"
      },
      {
        "avg_frame_rate": "0/0",
        "bit_rate": "768000",
        "bits_per_sample": 16,
        "channels": 1,
        "codec_long_name": "PCM signed 16-bit little-endian",
        "codec_name": "pcm_s16le",
        "codec_tag": "0x0000",
        "codec_tag_string": "[0][0][0][0]",
        "codec_time_base": "1/48000",
        "codec_type": "audio",
        "disposition": {
          "attached_pic": 0,
          "clean_effects": 0,
          "comment": 0,
          "default": 0,
          "dub": 0,
          "forced": 0,
          "hearing_impaired": 0,
          "karaoke": 0,
          "lyrics": 0,
          "original": 0,
          "timed_thumbnails": 0,
          "visual_impaired": 0
        },
        "duration": "64.798063",
        "duration_ts": 3110307,
        "index": 7,
        "r_frame_rate": "0/0",
        "sample_fmt": "s16",
        "sample_rate": "48000",
        "start_pts": 0,
        "start_time": "0.000000",
        "tags": {
          "file_package_umid": "0x060A2B340101010501010D2013000000CFEC51C37E794D9FAC76236E23C9D437",
          "track_name": "Audio Track"
        },
        "time_base": "1/48000"
      },
      {
        "avg_frame_rate": "0/0",
        "bit_rate": "768000",
        "bits_per_sample": 16,
        "channels": 1,
        "codec_long_name": "PCM signed 16-bit little-endian",
        "codec_name": "pcm_s16le",
        "codec_tag": "0x0000",
        "codec_tag_string": "[0][0][0][0]",
        "codec_time_base": "1/48000",
        "codec_type": "audio",
        "disposition": {
          "attached_pic": 0,
          "clean_effects": 0,
          "comment": 0,
          "default": 0,
          "dub": 0,
          "forced": 0,
          "hearing_impaired": 0,
          "karaoke": 0,
          "lyrics": 0,
          "original": 0,
          "timed_thumbnails": 0,
          "visual_impaired": 0
        },
        "duration": "64.798063",
        "duration_ts": 3110307,
        "index": 8,
        "r_frame_rate": "0/0",
        "sample_fmt": "s16",
        "sample_rate": "48000",
        "start_pts": 0,
        "start_time": "0.000000",
        "tags": {
          "file_package_umid": "0x060A2B340101010501010D2013000000CFEC51C37E794D9FAC76236E23C9D437",
          "track_name": "Audio Track"
        },
        "time_base": "1/48000"
      }
    ],
    "data_streams": [
      {
        "avg_frame_rate": "0/0",
        "codec_tag": "0x0000",
        "codec_tag_string": "[0][0][0][0]",
        "codec_type": "data",
        "disposition": {
          "attached_pic": 0,
          "clean_effects": 0,
          "comment": 0,
          "default": 0,
          "dub": 0,
          "forced": 0,
          "hearing_impaired": 0,
          "karaoke": 0,
          "lyrics": 0,
          "original": 0,
          "timed_thumbnails": 0,
          "visual_impaired": 0
        },
        "duration": "64.798067",
        "duration_ts": 3884,
        "index": 9,
        "r_frame_rate": "0/0",
        "start_pts": 0,
        "start_time": "0.000000",
        "tags": {
          "data_type": "vbi_vanc_smpte_436M",
          "file_package_umid": "0x060A2B340101010501010D2013000000CFEC51C37E794D9FAC76236E23C9D437",
          "track_name": "Data Track"
        },
        "time_base": "1001/60000"
      }
    ],
    "format": {
      "bit_rate": "123495689",
      "duration": "64.798067",
      "filename": "/mnt/archive2/ESPNLATINA/202003/9610413004/9610413004_original.mxf",
      "filename_extension": "mxf",
      "format_long_name": "MXF (Material eXchange Format)",
      "format_name": "mxf",
      "nb_programs": 0,
      "probe_score": 100,
      "size": "1000285244",
      "start_time": "0.000000",
      "streams_attachment_count": 0,
      "streams_audio_count": 8,
      "streams_count": 10,
      "streams_data_count": 1,
      "streams_image_count": 0,
      "streams_subtitle_count": 0,
      "streams_video_count": 1
    },
    "video_streams": [
      {
        "avg_frame_rate": "60000/1001",
        "chroma_location": "topleft",
        "codec_long_name": "DV (Digital Video)",
        "codec_name": "dvvideo",
        "codec_tag": "0x0000",
        "codec_tag_string": "[0][0][0][0]",
        "codec_time_base": "1001/60000",
        "codec_type": "video",
        "coded_height": 720,
        "coded_width": 960,
        "display_aspect_ratio": "16:9",
        "disposition": {
          "attached_pic": 0,
          "clean_effects": 0,
          "comment": 0,
          "default": 0,
          "dub": 0,
          "forced": 0,
          "hearing_impaired": 0,
          "karaoke": 0,
          "lyrics": 0,
          "original": 0,
          "timed_thumbnails": 0,
          "visual_impaired": 0
        },
        "duration": "64.798067",
        "duration_ts": 3884,
        "field_order": "progressive",
        "has_b_frames": 0,
        "height": 720,
        "index": 0,
        "level": -99,
        "pix_fmt": "yuv422p",
        "r_frame_rate": "60000/1001",
        "refs": 1,
        "sample_aspect_ratio": "4:3",
        "start_pts": 0,
        "start_time": "0.000000",
        "tags": {
          "file_package_umid": "0x060A2B340101010501010D2013000000CFEC51C37E794D9FAC76236E23C9D437",
          "track_name": "Picture Track"
        },
        "time_base": "1001/60000",
        "width": 960
      }
    ]
  },
  "mediainfo": {
    "audio_streams": [
      {
        "BitDepth": 16,
        "BitRate": 768000,
        "BitRate_Mode": "CBR",
        "Channels": 1,
        "CodecID": "0D01030102060300",
        "Delay": "83876.992",
        "Delay_DropFrame": "Yes",
        "Delay_Source": "Container",
        "Duration": "64.798",
        "Format": "PCM",
        "Format_Settings_Endianness": "Little",
        "Format_Settings_Wrapping": "Frame (AES)",
        "FrameCount": 3884,
        "FrameRate": "59.940",
        "ID": 3,
        "SamplesPerFrame": "800.8",
        "SamplingCount": 3110304,
        "SamplingRate": 48000,
        "StreamOrder": 1,
        "StreamSize": 6220608,
        "StreamSize_Proportion": "0.00622",
        "Title": "Audio Track",
        "extra": {
          "BlockAlignment": 2,
          "Delay_SDTI": 83877067,
          "Locked": "Yes"
        }
      },
      {
        "BitDepth": 16,
        "BitRate": 768000,
        "BitRate_Mode": "CBR",
        "Channels": 1,
        "CodecID": "0D01030102060300",
        "Delay": "83876.992",
        "Delay_DropFrame": "Yes",
        "Delay_Source": "Container",
        "Duration": "64.798",
        "Format": "PCM",
        "Format_Settings_Endianness": "Little",
        "Format_Settings_Wrapping": "Frame (AES)",
        "FrameCount": 3884,
        "FrameRate": "59.940",
        "ID": 4,
        "SamplesPerFrame": "800.8",
        "SamplingCount": 3110304,
        "SamplingRate": 48000,
        "StreamOrder": 2,
        "StreamSize": 6220608,
        "StreamSize_Proportion": "0.00622",
        "Title": "Audio Track",
        "extra": {
          "BlockAlignment": 2,
          "Delay_SDTI": 83877067,
          "Locked": "Yes"
        }
      },
      {
        "BitDepth": 16,
        "BitRate": 768000,
        "BitRate_Mode": "CBR",
        "Channels": 1,
        "CodecID": "0D01030102060300",
        "Delay": "83876.992",
        "Delay_DropFrame": "Yes",
        "Delay_Source": "Container",
        "Duration": "64.798",
        "Format": "PCM",
        "Format_Settings_Endianness": "Little",
        "Format_Settings_Wrapping": "Frame (AES)",
        "FrameCount": 3884,
        "FrameRate": "59.940",
        "ID": 5,
        "SamplesPerFrame": "800.8",
        "SamplingCount": 3110304,
        "SamplingRate": 48000,
        "StreamOrder": 3,
        "StreamSize": 6220608,
        "StreamSize_Proportion": "0.00622",
        "Title": "Audio Track",
        "extra": {
          "BlockAlignment": 2,
          "Delay_SDTI": 83877067,
          "Locked": "Yes"
        }
      },
      {
        "BitDepth": 16,
        "BitRate": 768000,
        "BitRate_Mode": "CBR",
        "Channels": 1,
        "CodecID": "0D01030102060300",
        "Delay": "83876.992",
        "Delay_DropFrame": "Yes",
        "Delay_Source": "Container",
        "Duration": "64.798",
        "Format": "PCM",
        "Format_Settings_Endianness": "Little",
        "Format_Settings_Wrapping": "Frame (AES)",
        "FrameCount": 3884,
        "FrameRate": "59.940",
        "ID": 6,
        "SamplesPerFrame": "800.8",
        "SamplingCount": 3110304,
        "SamplingRate": 48000,
        "StreamOrder": 4,
        "StreamSize": 6220608,
        "StreamSize_Proportion": "0.00622",
        "Title": "Audio Track",
        "extra": {
          "BlockAlignment": 2,
          "Delay_SDTI": 83877067,
          "Locked": "Yes"
        }
      },
      {
        "BitDepth": 16,
        "BitRate": 768000,
        "BitRate_Mode": "CBR",
        "Channels": 1,
        "CodecID": "0D01030102060300",
        "Delay": "83876.992",
        "Delay_DropFrame": "Yes",
        "Delay_Source": "Container",
        "Duration": "64.798",
        "Format": "PCM",
        "Format_Settings_Endianness": "Little",
        "Format_Settings_Wrapping": "Frame (AES)",
        "FrameCount": 3884,
        "FrameRate": "59.940",
        "ID": 7,
        "SamplesPerFrame": "800.8",
        "SamplingCount": 3110304,
        "SamplingRate": 48000,
        "StreamOrder": 5,
        "StreamSize": 6220608,
        "StreamSize_Proportion": "0.00622",
        "Title": "Audio Track",
        "extra": {
          "BlockAlignment": 2,
          "Delay_SDTI": 83877067,
          "Locked": "Yes"
        }
      },
      {
        "BitDepth": 16,
        "BitRate": 768000,
        "BitRate_Mode": "CBR",
        "Channels": 1,
        "CodecID": "0D01030102060300",
        "Delay": "83876.992",
        "Delay_DropFrame": "Yes",
        "Delay_Source": "Container",
        "Duration": "64.798",
        "Format": "PCM",
        "Format_Settings_Endianness": "Little",
        "Format_Settings_Wrapping": "Frame (AES)",
        "FrameCount": 3884,
        "FrameRate": "59.940",
        "ID": 8,
        "SamplesPerFrame": "800.8",
        "SamplingCount": 3110304,
        "SamplingRate": 48000,
        "StreamOrder": 6,
        "StreamSize": 6220608,
        "StreamSize_Proportion": "0.00622",
        "Title": "Audio Track",
        "extra": {
          "BlockAlignment": 2,
          "Delay_SDTI": 83877067,
          "Locked": "Yes"
        }
      },
      {
        "BitDepth": 16,
        "BitRate": 768000,
        "BitRate_Mode": "CBR",
        "Channels": 1,
        "CodecID": "0D01030102060300",
        "Delay": "83876.992",
        "Delay_DropFrame": "Yes",
        "Delay_Source": "Container",
        "Duration": "64.798",
        "Format": "PCM",
        "Format_Settings_Endianness": "Little",
        "Format_Settings_Wrapping": "Frame (AES)",
        "FrameCount": 3884,
        "FrameRate": "59.940",
        "ID": 9,
        "SamplesPerFrame": "800.8",
        "SamplingCount": 3110304,
        "SamplingRate": 48000,
        "StreamOrder": 7,
        "StreamSize": 6220608,
        "StreamSize_Proportion": "0.00622",
        "Title": "Audio Track",
        "extra": {
          "BlockAlignment": 2,
          "Delay_SDTI": 83877067,
          "Locked": "Yes"
        }
      },
      {
        "BitDepth": 16,
        "BitRate": 768000,
        "BitRate_Mode": "CBR",
        "Channels": 1,
        "CodecID": "0D01030102060300",
        "Delay": "83876.992",
        "Delay_DropFrame": "Yes",
        "Delay_Source": "Container",
        "Duration": "64.798",
        "Format": "PCM",
        "Format_Settings_Endianness": "Little",
        "Format_Settings_Wrapping": "Frame (AES)",
        "FrameCount": 3884,
        "FrameRate": "59.940",
        "ID": 10,
        "SamplesPerFrame": "800.8",
        "SamplingCount": 3110304,
        "SamplingRate": 48000,
        "StreamOrder": 8,
        "StreamSize": 6220608,
        "StreamSize_Proportion": "0.00622",
        "Title": "Audio Track",
        "extra": {
          "BlockAlignment": 2,
          "Delay_SDTI": 83877067,
          "Locked": "Yes"
        }
      }
    ],
    "format": {
      "AudioCount": 8,
      "Duration": "64.798",
      "Encoded_Application_CompanyName": "QUANTEL",
      "Encoded_Application_Name": "GenerationQ",
      "Encoded_Application_Version": "V5.4 rev 3",
      "Encoded_Date": "2020-03-18 16:53:13.804",
      "FileExtension": "mxf",
      "FileSize": 1000285244,
      "File_Modified_Date": "UTC 2020-03-18 16:53:53",
      "File_Modified_Date_Local": "2020-03-18 16:53:53",
      "FooterSize": 572,
      "Format": "MXF",
      "Format_Commercial_IfAny": "DVCPRO HD",
      "Format_Profile": "OP-1a",
      "Format_Settings": "Closed / Complete",
      "Format_Version": "1.2",
      "FrameCount": 3884,
      "FrameRate": "59.940",
      "OtherCount": 3,
      "OverallBitRate": 123495816,
      "StreamSize": 95277,
      "TextCount": 2,
      "VideoCount": 1,
      "extra": {
        "PrimaryPackage": "Material Package"
      },
      "filename": "/mnt/archive2/ESPNLATINA/202003/9610413004/9610413004_original.mxf",
      "streams_attachment_count": 0,
      "streams_audio_count": 8,
      "streams_count": 11,
      "streams_data_count": 0,
      "streams_image_count": 0,
      "streams_other_count": 0,
      "streams_subtitle_count": 2,
      "streams_video_count": 1
    },
    "other_streams": [
      {
        "Format": "MXF TC",
        "ID": "1-Material",
        "TimeCode_FirstFrame": "23:17:57;02",
        "TimeCode_Settings": "Material Package",
        "TimeCode_Striped": "Yes",
        "Type": "Time code"
      },
      {
        "Format": "MXF TC",
        "ID": "1-Source",
        "TimeCode_FirstFrame": "23:17:57;02",
        "TimeCode_Settings": "Source Package",
        "TimeCode_Striped": "Yes",
        "Type": "Time code"
      },
      {
        "Format": "SMPTE TC",
        "MuxingMode": "SDTI",
        "TimeCode_FirstFrame": "23:17:57;04",
        "Type": "Time code"
      }
    ],
    "subtitle_streams": [
      {
        "BitRate_Mode": "CBR",
        "Duration": "64.798",
        "Format": "EIA-708",
        "FrameCount": 3884,
        "FrameRate": "59.940",
        "ID": "11-1",
        "MuxingMode": "Ancillary data / CDP",
        "StreamSize": 0,
        "Title": "Data Track",
        "extra": {
          "CaptionServiceDescriptor_IsPresent": "No",
          "CaptionServiceName": 1,
          "cdp_length_Max": 43,
          "cdp_length_Min": 43
        }
      }
    ],
    "video_streams": [
      {
        "BitDepth": 8,
        "BitRate": 117339816,
        "ChromaSubsampling": "4:2:2",
        "CodecID": "0D01030102026201-0401020202020700",
        "ColorSpace": "YUV",
        "Compression_Mode": "Lossy",
        "Delay": "83876.992",
        "Delay_Original": "83877.066",
        "DisplayAspectRatio": "1.778",
        "Duration": "64.798",
        "Format": "DV",
        "Format_Commercial_IfAny": "DVCPRO HD",
        "Format_Settings_Wrapping": "Frame",
        "FrameCount": 3884,
        "FrameRate": "59.940",
        "FrameRate_Mode": "CFR",
        "Height": 720,
        "ID": 2,
        "PixelAspectRatio": "1.000",
        "PixelAspectRatio_Original": "1.333",
        "ScanType": "Progressive",
        "Standard": "NTSC",
        "StreamOrder": 0,
        "StreamSize": 950425103,
        "TimeCode_FirstFrame": "23:17:57;02",
        "TimeCode_Source": "Subcode time code",
        "Title": "Picture Track",
        "Width": 1280,
        "Width_Offset": 0,
        "Width_Original": 960,
        "colour_range": "Limited",
        "colour_range_Source": "Container",
        "extra": {
          "Delay_SDTI": 83877067
        },
        "transfer_characteristics": "BT.709",
        "transfer_characteristics_Source": "Container"
      }
    ]
  }
}
